<mxfile host="Electron" modified="2023-06-26T12:13:32.477Z" agent="Mozilla/5.0 (Windows NT 10.0; Win64; x64) AppleWebKit/537.36 (KHTML, like Gecko) draw.io/21.2.8 Chrome/112.0.5615.165 Electron/24.2.0 Safari/537.36" etag="n5sPBtK23EHHQSCjrSQ3" version="21.2.8" type="device">
  <diagram name="Page-1" id="Ly4L5-i1B5y53WOo5f_6">
    <mxGraphModel dx="975" dy="630" grid="1" gridSize="10" guides="1" tooltips="1" connect="1" arrows="1" fold="1" page="1" pageScale="1" pageWidth="850" pageHeight="1100" math="0" shadow="0">
      <root>
        <mxCell id="0" />
        <mxCell id="1" parent="0" />
        <mxCell id="NjaUMtxXkcwusq2uLVvd-1" value="" style="rounded=0;whiteSpace=wrap;html=1;" vertex="1" parent="1">
          <mxGeometry x="120" y="170" width="110" height="40" as="geometry" />
        </mxCell>
        <mxCell id="NjaUMtxXkcwusq2uLVvd-2" value="&lt;font style=&quot;font-size: 14px;&quot;&gt;Login&lt;/font&gt;" style="text;html=1;strokeColor=none;fillColor=none;align=center;verticalAlign=middle;whiteSpace=wrap;rounded=0;" vertex="1" parent="1">
          <mxGeometry x="145" y="170" width="60" height="40" as="geometry" />
        </mxCell>
        <mxCell id="NjaUMtxXkcwusq2uLVvd-4" value="" style="ellipse;whiteSpace=wrap;html=1;" vertex="1" parent="1">
          <mxGeometry x="60" y="80" width="110" height="40" as="geometry" />
        </mxCell>
        <mxCell id="NjaUMtxXkcwusq2uLVvd-5" value="" style="ellipse;whiteSpace=wrap;html=1;" vertex="1" parent="1">
          <mxGeometry x="190" y="80" width="110" height="40" as="geometry" />
        </mxCell>
        <mxCell id="NjaUMtxXkcwusq2uLVvd-6" value="" style="endArrow=none;html=1;rounded=0;exitX=0.5;exitY=0;exitDx=0;exitDy=0;entryX=0.5;entryY=1;entryDx=0;entryDy=0;" edge="1" parent="1" source="NjaUMtxXkcwusq2uLVvd-2" target="NjaUMtxXkcwusq2uLVvd-4">
          <mxGeometry width="50" height="50" relative="1" as="geometry">
            <mxPoint x="390" y="310" as="sourcePoint" />
            <mxPoint x="440" y="260" as="targetPoint" />
          </mxGeometry>
        </mxCell>
        <mxCell id="NjaUMtxXkcwusq2uLVvd-7" value="" style="endArrow=none;html=1;rounded=0;exitX=0.5;exitY=0;exitDx=0;exitDy=0;entryX=0.5;entryY=1;entryDx=0;entryDy=0;" edge="1" parent="1" source="NjaUMtxXkcwusq2uLVvd-2" target="NjaUMtxXkcwusq2uLVvd-5">
          <mxGeometry width="50" height="50" relative="1" as="geometry">
            <mxPoint x="390" y="310" as="sourcePoint" />
            <mxPoint x="440" y="260" as="targetPoint" />
          </mxGeometry>
        </mxCell>
        <mxCell id="NjaUMtxXkcwusq2uLVvd-8" value="" style="rhombus;whiteSpace=wrap;html=1;" vertex="1" parent="1">
          <mxGeometry x="132.5" y="270" width="85" height="80" as="geometry" />
        </mxCell>
        <mxCell id="NjaUMtxXkcwusq2uLVvd-9" value="" style="endArrow=none;html=1;rounded=0;exitX=0.5;exitY=0;exitDx=0;exitDy=0;entryX=0.5;entryY=1;entryDx=0;entryDy=0;" edge="1" parent="1" source="NjaUMtxXkcwusq2uLVvd-8" target="NjaUMtxXkcwusq2uLVvd-2">
          <mxGeometry width="50" height="50" relative="1" as="geometry">
            <mxPoint x="390" y="290" as="sourcePoint" />
            <mxPoint x="440" y="240" as="targetPoint" />
          </mxGeometry>
        </mxCell>
        <mxCell id="NjaUMtxXkcwusq2uLVvd-10" value="" style="rounded=0;whiteSpace=wrap;html=1;" vertex="1" parent="1">
          <mxGeometry x="470" y="480" width="110" height="40" as="geometry" />
        </mxCell>
        <mxCell id="NjaUMtxXkcwusq2uLVvd-11" value="" style="rounded=0;whiteSpace=wrap;html=1;" vertex="1" parent="1">
          <mxGeometry x="120" y="480" width="110" height="40" as="geometry" />
        </mxCell>
        <mxCell id="NjaUMtxXkcwusq2uLVvd-12" value="" style="endArrow=none;html=1;rounded=0;exitX=0.5;exitY=0;exitDx=0;exitDy=0;entryX=0.5;entryY=1;entryDx=0;entryDy=0;" edge="1" parent="1" source="NjaUMtxXkcwusq2uLVvd-11" target="NjaUMtxXkcwusq2uLVvd-8">
          <mxGeometry width="50" height="50" relative="1" as="geometry">
            <mxPoint x="390" y="290" as="sourcePoint" />
            <mxPoint x="440" y="240" as="targetPoint" />
          </mxGeometry>
        </mxCell>
        <mxCell id="NjaUMtxXkcwusq2uLVvd-13" value="" style="rhombus;whiteSpace=wrap;html=1;" vertex="1" parent="1">
          <mxGeometry x="300" y="460" width="85" height="80" as="geometry" />
        </mxCell>
        <mxCell id="NjaUMtxXkcwusq2uLVvd-14" value="" style="endArrow=none;html=1;rounded=0;exitX=1;exitY=0.5;exitDx=0;exitDy=0;" edge="1" parent="1" source="NjaUMtxXkcwusq2uLVvd-11" target="NjaUMtxXkcwusq2uLVvd-13">
          <mxGeometry width="50" height="50" relative="1" as="geometry">
            <mxPoint x="400" y="340" as="sourcePoint" />
            <mxPoint x="450" y="290" as="targetPoint" />
          </mxGeometry>
        </mxCell>
        <mxCell id="NjaUMtxXkcwusq2uLVvd-32" value="" style="edgeStyle=entityRelationEdgeStyle;fontSize=12;html=1;endArrow=ERoneToMany;rounded=0;exitX=1;exitY=0.5;exitDx=0;exitDy=0;entryX=0;entryY=0.5;entryDx=0;entryDy=0;" edge="1" parent="1" source="NjaUMtxXkcwusq2uLVvd-13" target="NjaUMtxXkcwusq2uLVvd-10">
          <mxGeometry width="100" height="100" relative="1" as="geometry">
            <mxPoint x="370" y="360" as="sourcePoint" />
            <mxPoint x="470" y="260" as="targetPoint" />
          </mxGeometry>
        </mxCell>
        <mxCell id="NjaUMtxXkcwusq2uLVvd-33" value="" style="rounded=0;whiteSpace=wrap;html=1;" vertex="1" parent="1">
          <mxGeometry x="620" y="290" width="110" height="40" as="geometry" />
        </mxCell>
        <mxCell id="NjaUMtxXkcwusq2uLVvd-34" value="" style="rhombus;whiteSpace=wrap;html=1;" vertex="1" parent="1">
          <mxGeometry x="627.5" y="372" width="85" height="80" as="geometry" />
        </mxCell>
        <mxCell id="NjaUMtxXkcwusq2uLVvd-35" value="" style="endArrow=none;html=1;rounded=0;entryX=0;entryY=0.5;entryDx=0;entryDy=0;exitX=1;exitY=0.5;exitDx=0;exitDy=0;" edge="1" parent="1" source="NjaUMtxXkcwusq2uLVvd-8" target="NjaUMtxXkcwusq2uLVvd-33">
          <mxGeometry width="50" height="50" relative="1" as="geometry">
            <mxPoint x="220" y="310" as="sourcePoint" />
            <mxPoint x="490" y="310" as="targetPoint" />
          </mxGeometry>
        </mxCell>
        <mxCell id="NjaUMtxXkcwusq2uLVvd-36" value="" style="endArrow=none;html=1;rounded=0;exitX=0.5;exitY=0;exitDx=0;exitDy=0;entryX=0.442;entryY=0.992;entryDx=0;entryDy=0;entryPerimeter=0;" edge="1" parent="1" source="NjaUMtxXkcwusq2uLVvd-34" target="NjaUMtxXkcwusq2uLVvd-33">
          <mxGeometry width="50" height="50" relative="1" as="geometry">
            <mxPoint x="440" y="360" as="sourcePoint" />
            <mxPoint x="670" y="340" as="targetPoint" />
          </mxGeometry>
        </mxCell>
        <mxCell id="NjaUMtxXkcwusq2uLVvd-37" value="" style="edgeStyle=entityRelationEdgeStyle;fontSize=12;html=1;endArrow=ERoneToMany;rounded=0;entryX=1;entryY=0.5;entryDx=0;entryDy=0;" edge="1" parent="1" target="NjaUMtxXkcwusq2uLVvd-10">
          <mxGeometry width="100" height="100" relative="1" as="geometry">
            <mxPoint x="640" y="500" as="sourcePoint" />
            <mxPoint x="480" y="510" as="targetPoint" />
          </mxGeometry>
        </mxCell>
        <mxCell id="NjaUMtxXkcwusq2uLVvd-38" value="" style="endArrow=none;html=1;rounded=0;exitX=0.5;exitY=1;exitDx=0;exitDy=0;" edge="1" parent="1" source="NjaUMtxXkcwusq2uLVvd-34">
          <mxGeometry width="50" height="50" relative="1" as="geometry">
            <mxPoint x="685" y="390" as="sourcePoint" />
            <mxPoint x="670" y="500" as="targetPoint" />
          </mxGeometry>
        </mxCell>
        <mxCell id="NjaUMtxXkcwusq2uLVvd-39" value="" style="endArrow=none;html=1;rounded=0;entryX=1;entryY=0.75;entryDx=0;entryDy=0;exitX=0.5;exitY=0;exitDx=0;exitDy=0;" edge="1" parent="1" source="NjaUMtxXkcwusq2uLVvd-40" target="NjaUMtxXkcwusq2uLVvd-33">
          <mxGeometry width="50" height="50" relative="1" as="geometry">
            <mxPoint x="780" y="370" as="sourcePoint" />
            <mxPoint x="640" y="310" as="targetPoint" />
            <Array as="points">
              <mxPoint x="783" y="320" />
            </Array>
          </mxGeometry>
        </mxCell>
        <mxCell id="NjaUMtxXkcwusq2uLVvd-40" value="" style="rhombus;whiteSpace=wrap;html=1;" vertex="1" parent="1">
          <mxGeometry x="740" y="350" width="85" height="80" as="geometry" />
        </mxCell>
        <mxCell id="NjaUMtxXkcwusq2uLVvd-43" value="" style="rounded=0;whiteSpace=wrap;html=1;" vertex="1" parent="1">
          <mxGeometry x="727.5" y="500" width="110" height="40" as="geometry" />
        </mxCell>
        <mxCell id="NjaUMtxXkcwusq2uLVvd-51" value="" style="endArrow=none;html=1;rounded=0;entryX=0.5;entryY=1;entryDx=0;entryDy=0;exitX=0.5;exitY=0;exitDx=0;exitDy=0;" edge="1" parent="1" source="NjaUMtxXkcwusq2uLVvd-43" target="NjaUMtxXkcwusq2uLVvd-40">
          <mxGeometry width="50" height="50" relative="1" as="geometry">
            <mxPoint x="620" y="460" as="sourcePoint" />
            <mxPoint x="670" y="410" as="targetPoint" />
          </mxGeometry>
        </mxCell>
        <mxCell id="NjaUMtxXkcwusq2uLVvd-52" value="" style="endArrow=none;html=1;rounded=0;exitX=1;exitY=0.25;exitDx=0;exitDy=0;entryX=0.5;entryY=0;entryDx=0;entryDy=0;" edge="1" parent="1" source="NjaUMtxXkcwusq2uLVvd-33" target="NjaUMtxXkcwusq2uLVvd-53">
          <mxGeometry width="50" height="50" relative="1" as="geometry">
            <mxPoint x="770" y="460" as="sourcePoint" />
            <mxPoint x="900" y="330" as="targetPoint" />
            <Array as="points">
              <mxPoint x="933" y="300" />
            </Array>
          </mxGeometry>
        </mxCell>
        <mxCell id="NjaUMtxXkcwusq2uLVvd-53" value="" style="rhombus;whiteSpace=wrap;html=1;" vertex="1" parent="1">
          <mxGeometry x="890" y="330" width="85" height="80" as="geometry" />
        </mxCell>
        <mxCell id="NjaUMtxXkcwusq2uLVvd-54" value="" style="rounded=0;whiteSpace=wrap;html=1;" vertex="1" parent="1">
          <mxGeometry x="877.5" y="480" width="110" height="40" as="geometry" />
        </mxCell>
        <mxCell id="NjaUMtxXkcwusq2uLVvd-62" value="" style="endArrow=none;html=1;rounded=0;entryX=0.5;entryY=1;entryDx=0;entryDy=0;exitX=0.5;exitY=0;exitDx=0;exitDy=0;" edge="1" parent="1" source="NjaUMtxXkcwusq2uLVvd-54" target="NjaUMtxXkcwusq2uLVvd-53">
          <mxGeometry width="50" height="50" relative="1" as="geometry">
            <mxPoint x="600" y="460" as="sourcePoint" />
            <mxPoint x="650" y="410" as="targetPoint" />
          </mxGeometry>
        </mxCell>
        <mxCell id="NjaUMtxXkcwusq2uLVvd-69" value="" style="endArrow=none;html=1;rounded=0;exitX=0.623;exitY=0.025;exitDx=0;exitDy=0;exitPerimeter=0;" edge="1" parent="1" source="NjaUMtxXkcwusq2uLVvd-54">
          <mxGeometry width="50" height="50" relative="1" as="geometry">
            <mxPoint x="600" y="460" as="sourcePoint" />
            <mxPoint x="920" y="480" as="targetPoint" />
            <Array as="points">
              <mxPoint x="933" y="470" />
            </Array>
          </mxGeometry>
        </mxCell>
        <mxCell id="NjaUMtxXkcwusq2uLVvd-70" value="" style="endArrow=none;html=1;rounded=0;" edge="1" parent="1">
          <mxGeometry width="50" height="50" relative="1" as="geometry">
            <mxPoint x="920" y="470" as="sourcePoint" />
            <mxPoint x="950" y="470" as="targetPoint" />
          </mxGeometry>
        </mxCell>
        <mxCell id="NjaUMtxXkcwusq2uLVvd-72" value="&lt;font style=&quot;font-size: 14px;&quot;&gt;has&lt;/font&gt;" style="text;html=1;strokeColor=none;fillColor=none;align=center;verticalAlign=middle;whiteSpace=wrap;rounded=0;" vertex="1" parent="1">
          <mxGeometry x="145" y="295" width="60" height="30" as="geometry" />
        </mxCell>
        <mxCell id="NjaUMtxXkcwusq2uLVvd-73" value="&lt;font style=&quot;font-size: 14px;&quot;&gt;Admin&lt;/font&gt;" style="text;html=1;strokeColor=none;fillColor=none;align=center;verticalAlign=middle;whiteSpace=wrap;rounded=0;" vertex="1" parent="1">
          <mxGeometry x="145" y="485" width="60" height="25" as="geometry" />
        </mxCell>
        <mxCell id="NjaUMtxXkcwusq2uLVvd-74" value="&lt;font style=&quot;font-size: 14px;&quot;&gt;manage&lt;/font&gt;" style="text;html=1;strokeColor=none;fillColor=none;align=center;verticalAlign=middle;whiteSpace=wrap;rounded=0;" vertex="1" parent="1">
          <mxGeometry x="310" y="485" width="60" height="30" as="geometry" />
        </mxCell>
        <mxCell id="NjaUMtxXkcwusq2uLVvd-75" value="&lt;font style=&quot;font-size: 14px;&quot;&gt;Book&lt;/font&gt;" style="text;html=1;strokeColor=none;fillColor=none;align=center;verticalAlign=middle;whiteSpace=wrap;rounded=0;" vertex="1" parent="1">
          <mxGeometry x="490" y="485" width="60" height="30" as="geometry" />
        </mxCell>
        <mxCell id="NjaUMtxXkcwusq2uLVvd-76" value="&lt;font style=&quot;font-size: 14px;&quot;&gt;User&lt;/font&gt;" style="text;html=1;strokeColor=none;fillColor=none;align=center;verticalAlign=middle;whiteSpace=wrap;rounded=0;" vertex="1" parent="1">
          <mxGeometry x="640" y="295" width="60" height="30" as="geometry" />
        </mxCell>
        <mxCell id="NjaUMtxXkcwusq2uLVvd-77" value="&lt;font style=&quot;font-size: 14px;&quot;&gt;view&lt;/font&gt;" style="text;html=1;strokeColor=none;fillColor=none;align=center;verticalAlign=middle;whiteSpace=wrap;rounded=0;" vertex="1" parent="1">
          <mxGeometry x="640" y="397" width="60" height="30" as="geometry" />
        </mxCell>
        <mxCell id="NjaUMtxXkcwusq2uLVvd-78" value="&lt;font style=&quot;font-size: 14px;&quot;&gt;provides&lt;/font&gt;" style="text;html=1;strokeColor=none;fillColor=none;align=center;verticalAlign=middle;whiteSpace=wrap;rounded=0;" vertex="1" parent="1">
          <mxGeometry x="750" y="375" width="60" height="30" as="geometry" />
        </mxCell>
        <mxCell id="NjaUMtxXkcwusq2uLVvd-80" value="&lt;font style=&quot;font-size: 14px;&quot;&gt;Rating&lt;/font&gt;" style="text;html=1;strokeColor=none;fillColor=none;align=center;verticalAlign=middle;whiteSpace=wrap;rounded=0;" vertex="1" parent="1">
          <mxGeometry x="752.5" y="505" width="60" height="30" as="geometry" />
        </mxCell>
        <mxCell id="NjaUMtxXkcwusq2uLVvd-81" value="&lt;font style=&quot;font-size: 14px;&quot;&gt;add / remove&lt;/font&gt;" style="text;html=1;strokeColor=none;fillColor=none;align=center;verticalAlign=middle;whiteSpace=wrap;rounded=0;" vertex="1" parent="1">
          <mxGeometry x="902.5" y="355" width="60" height="30" as="geometry" />
        </mxCell>
        <mxCell id="NjaUMtxXkcwusq2uLVvd-82" value="&lt;font style=&quot;font-size: 14px;&quot;&gt;Book List&lt;/font&gt;" style="text;html=1;strokeColor=none;fillColor=none;align=center;verticalAlign=middle;whiteSpace=wrap;rounded=0;" vertex="1" parent="1">
          <mxGeometry x="902.5" y="485" width="60" height="30" as="geometry" />
        </mxCell>
        <mxCell id="NjaUMtxXkcwusq2uLVvd-83" value="&lt;font style=&quot;font-size: 14px;&quot;&gt;Username&lt;/font&gt;" style="text;html=1;strokeColor=none;fillColor=none;align=center;verticalAlign=middle;whiteSpace=wrap;rounded=0;" vertex="1" parent="1">
          <mxGeometry x="85" y="85" width="60" height="30" as="geometry" />
        </mxCell>
        <mxCell id="NjaUMtxXkcwusq2uLVvd-85" value="&lt;font style=&quot;font-size: 14px;&quot;&gt;Password&lt;/font&gt;" style="text;html=1;strokeColor=none;fillColor=none;align=center;verticalAlign=middle;whiteSpace=wrap;rounded=0;" vertex="1" parent="1">
          <mxGeometry x="215" y="85" width="60" height="30" as="geometry" />
        </mxCell>
        <mxCell id="NjaUMtxXkcwusq2uLVvd-89" value="" style="ellipse;whiteSpace=wrap;html=1;" vertex="1" parent="1">
          <mxGeometry x="50" y="570" width="110" height="40" as="geometry" />
        </mxCell>
        <mxCell id="NjaUMtxXkcwusq2uLVvd-90" value="" style="ellipse;whiteSpace=wrap;html=1;" vertex="1" parent="1">
          <mxGeometry x="180" y="570" width="110" height="40" as="geometry" />
        </mxCell>
        <mxCell id="NjaUMtxXkcwusq2uLVvd-93" value="" style="endArrow=none;html=1;rounded=0;entryX=0.5;entryY=1;entryDx=0;entryDy=0;" edge="1" parent="1" target="NjaUMtxXkcwusq2uLVvd-11">
          <mxGeometry width="50" height="50" relative="1" as="geometry">
            <mxPoint x="120" y="570" as="sourcePoint" />
            <mxPoint x="180" y="520" as="targetPoint" />
            <Array as="points">
              <mxPoint x="120" y="570" />
            </Array>
          </mxGeometry>
        </mxCell>
        <mxCell id="NjaUMtxXkcwusq2uLVvd-95" value="" style="endArrow=none;html=1;rounded=0;entryX=0.5;entryY=1;entryDx=0;entryDy=0;" edge="1" parent="1" target="NjaUMtxXkcwusq2uLVvd-11">
          <mxGeometry width="50" height="50" relative="1" as="geometry">
            <mxPoint x="230" y="570" as="sourcePoint" />
            <mxPoint x="190" y="520" as="targetPoint" />
            <Array as="points" />
          </mxGeometry>
        </mxCell>
        <mxCell id="NjaUMtxXkcwusq2uLVvd-97" value="&lt;font style=&quot;font-size: 14px;&quot;&gt;Username&lt;/font&gt;" style="text;html=1;strokeColor=none;fillColor=none;align=center;verticalAlign=middle;whiteSpace=wrap;rounded=0;" vertex="1" parent="1">
          <mxGeometry x="72.5" y="575" width="60" height="30" as="geometry" />
        </mxCell>
        <mxCell id="NjaUMtxXkcwusq2uLVvd-98" value="&lt;font style=&quot;font-size: 14px;&quot;&gt;Password&lt;/font&gt;" style="text;html=1;strokeColor=none;fillColor=none;align=center;verticalAlign=middle;whiteSpace=wrap;rounded=0;" vertex="1" parent="1">
          <mxGeometry x="205" y="575" width="60" height="30" as="geometry" />
        </mxCell>
        <mxCell id="NjaUMtxXkcwusq2uLVvd-99" value="" style="ellipse;whiteSpace=wrap;html=1;" vertex="1" parent="1">
          <mxGeometry x="540" y="197" width="110" height="40" as="geometry" />
        </mxCell>
        <mxCell id="NjaUMtxXkcwusq2uLVvd-100" value="" style="ellipse;whiteSpace=wrap;html=1;" vertex="1" parent="1">
          <mxGeometry x="752.5" y="192" width="110" height="40" as="geometry" />
        </mxCell>
        <mxCell id="NjaUMtxXkcwusq2uLVvd-101" value="" style="ellipse;whiteSpace=wrap;html=1;" vertex="1" parent="1">
          <mxGeometry x="712.5" y="145" width="110" height="40" as="geometry" />
        </mxCell>
        <mxCell id="NjaUMtxXkcwusq2uLVvd-102" value="" style="ellipse;whiteSpace=wrap;html=1;" vertex="1" parent="1">
          <mxGeometry x="590" y="150" width="110" height="40" as="geometry" />
        </mxCell>
        <mxCell id="NjaUMtxXkcwusq2uLVvd-103" value="" style="endArrow=none;html=1;rounded=0;entryX=0.5;entryY=1;entryDx=0;entryDy=0;" edge="1" parent="1" target="NjaUMtxXkcwusq2uLVvd-100">
          <mxGeometry width="50" height="50" relative="1" as="geometry">
            <mxPoint x="680" y="290" as="sourcePoint" />
            <mxPoint x="805" y="220" as="targetPoint" />
          </mxGeometry>
        </mxCell>
        <mxCell id="NjaUMtxXkcwusq2uLVvd-105" value="" style="endArrow=none;html=1;rounded=0;entryX=0.5;entryY=1;entryDx=0;entryDy=0;" edge="1" parent="1" target="NjaUMtxXkcwusq2uLVvd-99">
          <mxGeometry width="50" height="50" relative="1" as="geometry">
            <mxPoint x="680" y="290" as="sourcePoint" />
            <mxPoint x="660" y="210" as="targetPoint" />
          </mxGeometry>
        </mxCell>
        <mxCell id="NjaUMtxXkcwusq2uLVvd-106" value="" style="endArrow=none;html=1;rounded=0;entryX=0.5;entryY=1;entryDx=0;entryDy=0;" edge="1" parent="1" target="NjaUMtxXkcwusq2uLVvd-102">
          <mxGeometry width="50" height="50" relative="1" as="geometry">
            <mxPoint x="680" y="290" as="sourcePoint" />
            <mxPoint x="550" y="190" as="targetPoint" />
          </mxGeometry>
        </mxCell>
        <mxCell id="NjaUMtxXkcwusq2uLVvd-107" value="" style="endArrow=none;html=1;rounded=0;entryX=0.5;entryY=1;entryDx=0;entryDy=0;" edge="1" parent="1" target="NjaUMtxXkcwusq2uLVvd-101">
          <mxGeometry width="50" height="50" relative="1" as="geometry">
            <mxPoint x="680" y="290" as="sourcePoint" />
            <mxPoint x="550" y="190" as="targetPoint" />
          </mxGeometry>
        </mxCell>
        <mxCell id="NjaUMtxXkcwusq2uLVvd-108" value="&lt;font style=&quot;font-size: 14px;&quot;&gt;User_id&lt;/font&gt;" style="text;html=1;strokeColor=none;fillColor=none;align=center;verticalAlign=middle;whiteSpace=wrap;rounded=0;" vertex="1" parent="1">
          <mxGeometry x="567.5" y="202" width="60" height="30" as="geometry" />
        </mxCell>
        <mxCell id="NjaUMtxXkcwusq2uLVvd-110" value="&lt;font style=&quot;font-size: 14px;&quot;&gt;Username&lt;/font&gt;" style="text;html=1;strokeColor=none;fillColor=none;align=center;verticalAlign=middle;whiteSpace=wrap;rounded=0;" vertex="1" parent="1">
          <mxGeometry x="615" y="155" width="60" height="30" as="geometry" />
        </mxCell>
        <mxCell id="NjaUMtxXkcwusq2uLVvd-113" value="&lt;font style=&quot;font-size: 14px;&quot;&gt;Password&lt;/font&gt;" style="text;html=1;strokeColor=none;fillColor=none;align=center;verticalAlign=middle;whiteSpace=wrap;rounded=0;" vertex="1" parent="1">
          <mxGeometry x="740" y="150" width="60" height="30" as="geometry" />
        </mxCell>
        <mxCell id="NjaUMtxXkcwusq2uLVvd-114" value="&lt;font style=&quot;font-size: 14px;&quot;&gt;Email&lt;/font&gt;" style="text;html=1;strokeColor=none;fillColor=none;align=center;verticalAlign=middle;whiteSpace=wrap;rounded=0;" vertex="1" parent="1">
          <mxGeometry x="777.5" y="197" width="60" height="30" as="geometry" />
        </mxCell>
        <mxCell id="NjaUMtxXkcwusq2uLVvd-117" value="" style="ellipse;whiteSpace=wrap;html=1;" vertex="1" parent="1">
          <mxGeometry x="380" y="575" width="110" height="40" as="geometry" />
        </mxCell>
        <mxCell id="NjaUMtxXkcwusq2uLVvd-119" value="" style="ellipse;whiteSpace=wrap;html=1;" vertex="1" parent="1">
          <mxGeometry x="530" y="570" width="110" height="40" as="geometry" />
        </mxCell>
        <mxCell id="NjaUMtxXkcwusq2uLVvd-124" value="" style="ellipse;whiteSpace=wrap;html=1;" vertex="1" parent="1">
          <mxGeometry x="465" y="615" width="110" height="40" as="geometry" />
        </mxCell>
        <mxCell id="NjaUMtxXkcwusq2uLVvd-129" value="" style="endArrow=none;html=1;rounded=0;entryX=0.5;entryY=1;entryDx=0;entryDy=0;exitX=0.5;exitY=0;exitDx=0;exitDy=0;" edge="1" parent="1" source="NjaUMtxXkcwusq2uLVvd-117" target="NjaUMtxXkcwusq2uLVvd-10">
          <mxGeometry width="50" height="50" relative="1" as="geometry">
            <mxPoint x="440" y="620" as="sourcePoint" />
            <mxPoint x="490" y="570" as="targetPoint" />
          </mxGeometry>
        </mxCell>
        <mxCell id="NjaUMtxXkcwusq2uLVvd-132" value="" style="endArrow=none;html=1;rounded=0;exitX=0.5;exitY=0;exitDx=0;exitDy=0;" edge="1" parent="1" source="NjaUMtxXkcwusq2uLVvd-119">
          <mxGeometry width="50" height="50" relative="1" as="geometry">
            <mxPoint x="440" y="620" as="sourcePoint" />
            <mxPoint x="520" y="520" as="targetPoint" />
          </mxGeometry>
        </mxCell>
        <mxCell id="NjaUMtxXkcwusq2uLVvd-133" value="" style="endArrow=none;html=1;rounded=0;exitX=0.5;exitY=0;exitDx=0;exitDy=0;" edge="1" parent="1" source="NjaUMtxXkcwusq2uLVvd-124">
          <mxGeometry width="50" height="50" relative="1" as="geometry">
            <mxPoint x="520" y="620" as="sourcePoint" />
            <mxPoint x="520" y="520" as="targetPoint" />
          </mxGeometry>
        </mxCell>
        <mxCell id="NjaUMtxXkcwusq2uLVvd-144" value="&lt;font style=&quot;font-size: 14px;&quot;&gt;Book_id&lt;/font&gt;" style="text;html=1;strokeColor=none;fillColor=none;align=center;verticalAlign=middle;whiteSpace=wrap;rounded=0;" vertex="1" parent="1">
          <mxGeometry x="405" y="580" width="60" height="30" as="geometry" />
        </mxCell>
        <mxCell id="NjaUMtxXkcwusq2uLVvd-145" value="&lt;font style=&quot;font-size: 14px;&quot;&gt;Book_name&lt;/font&gt;" style="text;html=1;strokeColor=none;fillColor=none;align=center;verticalAlign=middle;whiteSpace=wrap;rounded=0;" vertex="1" parent="1">
          <mxGeometry x="495" y="620" width="60" height="30" as="geometry" />
        </mxCell>
        <mxCell id="NjaUMtxXkcwusq2uLVvd-147" value="&lt;font style=&quot;font-size: 14px;&quot;&gt;Author&lt;/font&gt;" style="text;html=1;strokeColor=none;fillColor=none;align=center;verticalAlign=middle;whiteSpace=wrap;rounded=0;" vertex="1" parent="1">
          <mxGeometry x="550" y="580" width="60" height="30" as="geometry" />
        </mxCell>
        <mxCell id="NjaUMtxXkcwusq2uLVvd-149" value="" style="ellipse;whiteSpace=wrap;html=1;" vertex="1" parent="1">
          <mxGeometry x="650" y="570" width="110" height="40" as="geometry" />
        </mxCell>
        <mxCell id="NjaUMtxXkcwusq2uLVvd-150" value="" style="ellipse;whiteSpace=wrap;html=1;" vertex="1" parent="1">
          <mxGeometry x="822.5" y="575" width="110" height="40" as="geometry" />
        </mxCell>
        <mxCell id="NjaUMtxXkcwusq2uLVvd-151" value="" style="ellipse;whiteSpace=wrap;html=1;" vertex="1" parent="1">
          <mxGeometry x="660" y="620" width="110" height="40" as="geometry" />
        </mxCell>
        <mxCell id="NjaUMtxXkcwusq2uLVvd-153" value="" style="ellipse;whiteSpace=wrap;html=1;" vertex="1" parent="1">
          <mxGeometry x="780" y="620" width="110" height="40" as="geometry" />
        </mxCell>
        <mxCell id="NjaUMtxXkcwusq2uLVvd-154" value="" style="endArrow=none;html=1;rounded=0;entryX=0.5;entryY=1;entryDx=0;entryDy=0;exitX=0.5;exitY=0;exitDx=0;exitDy=0;" edge="1" parent="1" source="NjaUMtxXkcwusq2uLVvd-149" target="NjaUMtxXkcwusq2uLVvd-43">
          <mxGeometry width="50" height="50" relative="1" as="geometry">
            <mxPoint x="620" y="620" as="sourcePoint" />
            <mxPoint x="670" y="570" as="targetPoint" />
          </mxGeometry>
        </mxCell>
        <mxCell id="NjaUMtxXkcwusq2uLVvd-155" value="" style="endArrow=none;html=1;rounded=0;entryX=0.5;entryY=1;entryDx=0;entryDy=0;exitX=1;exitY=0;exitDx=0;exitDy=0;" edge="1" parent="1" source="NjaUMtxXkcwusq2uLVvd-151" target="NjaUMtxXkcwusq2uLVvd-43">
          <mxGeometry width="50" height="50" relative="1" as="geometry">
            <mxPoint x="620" y="620" as="sourcePoint" />
            <mxPoint x="670" y="570" as="targetPoint" />
          </mxGeometry>
        </mxCell>
        <mxCell id="NjaUMtxXkcwusq2uLVvd-158" value="" style="endArrow=none;html=1;rounded=0;exitX=0;exitY=0;exitDx=0;exitDy=0;" edge="1" parent="1" source="NjaUMtxXkcwusq2uLVvd-153">
          <mxGeometry width="50" height="50" relative="1" as="geometry">
            <mxPoint x="620" y="620" as="sourcePoint" />
            <mxPoint x="780" y="540" as="targetPoint" />
          </mxGeometry>
        </mxCell>
        <mxCell id="NjaUMtxXkcwusq2uLVvd-159" value="" style="endArrow=none;html=1;rounded=0;exitX=0;exitY=0;exitDx=0;exitDy=0;" edge="1" parent="1" source="NjaUMtxXkcwusq2uLVvd-150">
          <mxGeometry width="50" height="50" relative="1" as="geometry">
            <mxPoint x="820" y="590" as="sourcePoint" />
            <mxPoint x="780" y="540" as="targetPoint" />
          </mxGeometry>
        </mxCell>
        <mxCell id="NjaUMtxXkcwusq2uLVvd-160" value="" style="ellipse;whiteSpace=wrap;html=1;" vertex="1" parent="1">
          <mxGeometry x="1010" y="420" width="110" height="40" as="geometry" />
        </mxCell>
        <mxCell id="NjaUMtxXkcwusq2uLVvd-161" value="" style="ellipse;whiteSpace=wrap;html=1;" vertex="1" parent="1">
          <mxGeometry x="1040" y="470" width="110" height="40" as="geometry" />
        </mxCell>
        <mxCell id="NjaUMtxXkcwusq2uLVvd-162" value="" style="ellipse;whiteSpace=wrap;html=1;" vertex="1" parent="1">
          <mxGeometry x="1040" y="520" width="110" height="40" as="geometry" />
        </mxCell>
        <mxCell id="NjaUMtxXkcwusq2uLVvd-163" value="" style="ellipse;whiteSpace=wrap;html=1;" vertex="1" parent="1">
          <mxGeometry x="1030" y="575" width="110" height="40" as="geometry" />
        </mxCell>
        <mxCell id="NjaUMtxXkcwusq2uLVvd-164" value="" style="endArrow=none;html=1;rounded=0;entryX=0;entryY=1;entryDx=0;entryDy=0;exitX=1;exitY=0.5;exitDx=0;exitDy=0;" edge="1" parent="1" source="NjaUMtxXkcwusq2uLVvd-54" target="NjaUMtxXkcwusq2uLVvd-160">
          <mxGeometry width="50" height="50" relative="1" as="geometry">
            <mxPoint x="990" y="500" as="sourcePoint" />
            <mxPoint x="710" y="440" as="targetPoint" />
          </mxGeometry>
        </mxCell>
        <mxCell id="NjaUMtxXkcwusq2uLVvd-165" value="" style="endArrow=none;html=1;rounded=0;entryX=0;entryY=0.5;entryDx=0;entryDy=0;exitX=1;exitY=0.5;exitDx=0;exitDy=0;" edge="1" parent="1" source="NjaUMtxXkcwusq2uLVvd-54" target="NjaUMtxXkcwusq2uLVvd-163">
          <mxGeometry width="50" height="50" relative="1" as="geometry">
            <mxPoint x="660" y="490" as="sourcePoint" />
            <mxPoint x="710" y="440" as="targetPoint" />
          </mxGeometry>
        </mxCell>
        <mxCell id="NjaUMtxXkcwusq2uLVvd-166" value="" style="endArrow=none;html=1;rounded=0;entryX=0;entryY=0.5;entryDx=0;entryDy=0;exitX=1;exitY=0.5;exitDx=0;exitDy=0;" edge="1" parent="1" source="NjaUMtxXkcwusq2uLVvd-54" target="NjaUMtxXkcwusq2uLVvd-161">
          <mxGeometry width="50" height="50" relative="1" as="geometry">
            <mxPoint x="1020" y="550" as="sourcePoint" />
            <mxPoint x="710" y="440" as="targetPoint" />
          </mxGeometry>
        </mxCell>
        <mxCell id="NjaUMtxXkcwusq2uLVvd-167" value="" style="endArrow=none;html=1;rounded=0;entryX=0;entryY=0.5;entryDx=0;entryDy=0;exitX=1;exitY=0.5;exitDx=0;exitDy=0;" edge="1" parent="1" source="NjaUMtxXkcwusq2uLVvd-54" target="NjaUMtxXkcwusq2uLVvd-162">
          <mxGeometry width="50" height="50" relative="1" as="geometry">
            <mxPoint x="660" y="490" as="sourcePoint" />
            <mxPoint x="710" y="440" as="targetPoint" />
          </mxGeometry>
        </mxCell>
        <mxCell id="NjaUMtxXkcwusq2uLVvd-171" value="&lt;font style=&quot;font-size: 14px;&quot;&gt;Rating_id&lt;/font&gt;" style="text;html=1;strokeColor=none;fillColor=none;align=center;verticalAlign=middle;whiteSpace=wrap;rounded=0;" vertex="1" parent="1">
          <mxGeometry x="667.5" y="575" width="60" height="30" as="geometry" />
        </mxCell>
        <mxCell id="NjaUMtxXkcwusq2uLVvd-172" value="&lt;font style=&quot;font-size: 14px;&quot;&gt;Book_id&lt;/font&gt;" style="text;html=1;strokeColor=none;fillColor=none;align=center;verticalAlign=middle;whiteSpace=wrap;rounded=0;" vertex="1" parent="1">
          <mxGeometry x="680" y="625" width="60" height="30" as="geometry" />
        </mxCell>
        <mxCell id="NjaUMtxXkcwusq2uLVvd-173" value="&lt;font style=&quot;font-size: 14px;&quot;&gt;User_id&lt;/font&gt;" style="text;html=1;strokeColor=none;fillColor=none;align=center;verticalAlign=middle;whiteSpace=wrap;rounded=0;" vertex="1" parent="1">
          <mxGeometry x="808" y="635" width="42.5" height="15" as="geometry" />
        </mxCell>
        <mxCell id="NjaUMtxXkcwusq2uLVvd-174" value="&lt;font style=&quot;font-size: 14px;&quot;&gt;Rating&lt;/font&gt;" style="text;html=1;strokeColor=none;fillColor=none;align=center;verticalAlign=middle;whiteSpace=wrap;rounded=0;" vertex="1" parent="1">
          <mxGeometry x="842.5" y="585" width="60" height="30" as="geometry" />
        </mxCell>
        <mxCell id="NjaUMtxXkcwusq2uLVvd-176" value="&lt;font style=&quot;font-size: 14px;&quot;&gt;&amp;nbsp;BookList_id&lt;/font&gt;" style="text;html=1;strokeColor=none;fillColor=none;align=center;verticalAlign=middle;whiteSpace=wrap;rounded=0;" vertex="1" parent="1">
          <mxGeometry x="1030" y="430" width="60" height="30" as="geometry" />
        </mxCell>
        <mxCell id="NjaUMtxXkcwusq2uLVvd-179" value="&lt;font style=&quot;font-size: 14px;&quot;&gt;Book_id&lt;/font&gt;" style="text;html=1;strokeColor=none;fillColor=none;align=center;verticalAlign=middle;whiteSpace=wrap;rounded=0;" vertex="1" parent="1">
          <mxGeometry x="1060" y="475" width="60" height="30" as="geometry" />
        </mxCell>
        <mxCell id="NjaUMtxXkcwusq2uLVvd-180" value="&lt;font style=&quot;font-size: 14px;&quot;&gt;User_id&lt;/font&gt;" style="text;html=1;strokeColor=none;fillColor=none;align=center;verticalAlign=middle;whiteSpace=wrap;rounded=0;" vertex="1" parent="1">
          <mxGeometry x="1065" y="525" width="60" height="30" as="geometry" />
        </mxCell>
        <mxCell id="NjaUMtxXkcwusq2uLVvd-181" value="&lt;font style=&quot;font-size: 14px;&quot;&gt;Added_date&lt;/font&gt;" style="text;html=1;strokeColor=none;fillColor=none;align=center;verticalAlign=middle;whiteSpace=wrap;rounded=0;" vertex="1" parent="1">
          <mxGeometry x="1055" y="580" width="60" height="30" as="geometry" />
        </mxCell>
        <mxCell id="NjaUMtxXkcwusq2uLVvd-183" value="&lt;font style=&quot;font-size: 14px;&quot;&gt;1&lt;/font&gt;" style="text;html=1;strokeColor=none;fillColor=none;align=center;verticalAlign=middle;whiteSpace=wrap;rounded=0;" vertex="1" parent="1">
          <mxGeometry x="145" y="215" width="20" height="22" as="geometry" />
        </mxCell>
        <mxCell id="NjaUMtxXkcwusq2uLVvd-185" value="&lt;font style=&quot;font-size: 14px;&quot;&gt;1&lt;/font&gt;" style="text;html=1;strokeColor=none;fillColor=none;align=center;verticalAlign=middle;whiteSpace=wrap;rounded=0;" vertex="1" parent="1">
          <mxGeometry x="150" y="452" width="20" height="22" as="geometry" />
        </mxCell>
        <mxCell id="NjaUMtxXkcwusq2uLVvd-188" value="&lt;font style=&quot;font-size: 14px;&quot;&gt;1&lt;/font&gt;" style="text;html=1;strokeColor=none;fillColor=none;align=center;verticalAlign=middle;whiteSpace=wrap;rounded=0;" vertex="1" parent="1">
          <mxGeometry x="675" y="333" width="25" height="22" as="geometry" />
        </mxCell>
        <mxCell id="NjaUMtxXkcwusq2uLVvd-189" value="&lt;font style=&quot;font-size: 14px;&quot;&gt;1&lt;/font&gt;" style="text;html=1;strokeColor=none;fillColor=none;align=center;verticalAlign=middle;whiteSpace=wrap;rounded=0;" vertex="1" parent="1">
          <mxGeometry x="785" y="478" width="20" height="22" as="geometry" />
        </mxCell>
        <mxCell id="NjaUMtxXkcwusq2uLVvd-190" value="&lt;font style=&quot;font-size: 14px;&quot;&gt;1&lt;/font&gt;" style="text;html=1;strokeColor=none;fillColor=none;align=center;verticalAlign=middle;whiteSpace=wrap;rounded=0;" vertex="1" parent="1">
          <mxGeometry x="590" y="290" width="20" height="22" as="geometry" />
        </mxCell>
      </root>
    </mxGraphModel>
  </diagram>
</mxfile>
